<svg xmlns="http://www.w3.org/2000/svg" viewBox="0 0 512 512">
  <!-- PIX Logo - Banco Central do Brasil (Simplificado) -->
  <g fill="#32BCAD">
    <!-- Losango central com setas -->
    <path d="M242.5 16.5c7.5-7.5 19.6-7.5 27.1 0l90.1 90.1c7.5 7.5 7.5 19.6 0 27.1l-90.1 90.1c-7.5 7.5-19.6 7.5-27.1 0l-90.1-90.1c-7.5-7.5-7.5-19.6 0-27.1l90.1-90.1z"/>
    <path d="M242.5 288.2c7.5-7.5 19.6-7.5 27.1 0l90.1 90.1c7.5 7.5 7.5 19.6 0 27.1l-90.1 90.1c-7.5 7.5-19.6 7.5-27.1 0l-90.1-90.1c-7.5-7.5-7.5-19.6 0-27.1l90.1-90.1z"/>
    <path d="M378.3 152.4c7.5-7.5 19.6-7.5 27.1 0l90.1 90.1c7.5 7.5 7.5 19.6 0 27.1l-90.1 90.1c-7.5 7.5-19.6 7.5-27.1 0l-90.1-90.1c-7.5-7.5-7.5-19.6 0-27.1l90.1-90.1z"/>
    <path d="M106.6 152.4c7.5-7.5 19.6-7.5 27.1 0l90.1 90.1c7.5 7.5 7.5 19.6 0 27.1l-90.1 90.1c-7.5 7.5-19.6 7.5-27.1 0l-90.1-90.1c-7.5-7.5-7.5-19.6 0-27.1l90.1-90.1z"/>
  </g>
</svg>
